PathFileType	4	(X/Y/Z)	C:/Users/beibeiliu/ov580/test_trc/User1\sequence.27_training_dense_right.trc
DataRate	CameraRate	NumFrames	NumMarkers	Units	OrigDataRate	OrigDataStartFrame	OrigNumFrames
120	120	23	19	mm	120	98	259
Frame#	Time	ThumbCMC			ThumbMCP			ThumbIP			ThumbTip			IndexMCP			IndexPIP			IndexTip			MiddleMCP			MiddlePIP			MiddleTip			RingMCP			RingPIP			RingTip			PinkyMCP			PinkyPIP			PinkyTip			BackHand1			BackHand2			BackHand3	
		X0	Y0	Z0	X1	Y1	Z1	X2	Y2	Z2	X3	Y3	Z3	X4	Y4	Z4	X5	Y5	Z5	X6	Y6	Z6	X7	Y7	Z7	X8	Y8	Z8	X9	Y9	Z9	X10	Y10	Z10	X11	Y11	Z11	X12	Y12	Z12	X13	Y13	Z13	X14	Y14	Z14	X15	Y15	Z15	X16	Y16	Z16	X17	Y17	Z17	X18	Y18	Z18	
97	0.808333	135.098	45.7925	94.9428	103.699	54.5429	77.9597	82.3389	63.7676	59.8558	62.5317	55.1296	41.2731	150.992	36.8509	17.284	153.248	43.1684	-8.43508	154.024	44.0105	-34.6463	144.052	6.78656	2.92356	140.494	6.13776	-23.2447	132.369	3.01121	-53.7233	105.894	-5.47982	9.68478	78.0939	3.37512	0.538566	53.538	18.4976	14.1145	92.4086	-19.1273	34.7198	66.5551	-4.60381	36.0934	51.7337	18.3302	44.5123	142.174	-19.6213	60.2505	153.743	-24.1538	92.3866	161.369	11.7062	78.4575	
98	0.816667	136.861	44.4085	97.6916	104.237	56.8283	81.2237	85.1972	60.1811	59.3036	62.3983	58.1465	40.1593	149.954	34.2503	16.256	151.426	38.4819	-10.0762	153.558	44.7382	-36.6985	141.884	1.99644	4.11291	137.039	2.06716	-26.5554	127.777	3.64685	-51.4381	107.511	-8.27165	12.7889	78.5208	4.30457	2.00618	57.1793	19.5325	18.8052	90.5104	-24.225	36.346	69.2717	-0.782707	34.0223	56.9758	19.9601	46.2706	142.506	-18.5704	63.2614	151.734	-26.773	96.3852	160.817	11.704	76.7097	
99	0.825	138.276	43.4527	94.8859	105.539	54.9912	79.0645	85.3116	61.493	55.9425	62.9329	59.0114	38.8115	149.882	35.6032	16.1218	151.01	39.528	-8.75756	149.578	40.9833	-38.8753	142.73	2.76058	3.87542	135.6	0.420832	-23.7864	122.902	2.9598	-53.0532	106.265	-8.04565	11.1341	75.2467	3.95847	4.02776	57.664	18.0981	25.3951	88.1812	-23.8884	33.9437	65.9912	-5.63322	34.9584	58.8027	21.64	47.5059	139.675	-21.3566	60.6909	150.302	-29.9939	95.2391	159.495	8.78088	78.2534	
100	0.833333	139.366	39.8559	94.3814	107.996	57.7158	77.8389	87.806	62.6975	58.3626	68.4378	55.2096	38.4533	149.615	29.7042	13.7222	152.146	35.9302	-13.5585	148.297	35.9589	-37.0824	140.472	-1.98763	4.71322	133.448	-4.09684	-26.4494	119.011	-0.712191	-52.4879	107.53	-11.1718	11.6066	77.0396	5.63644	2.96289	61.2323	21.354	30.7263	91.3463	-24.1364	34.3786	70.6327	-4.64257	31.7179	61.7909	19.9013	50.6215	140.677	-21.1219	62.2901	148.587	-31.5987	94.0873	161.205	4.62285	77.0558	
101	0.841667	141.465	41.2132	90.6953	110.838	54.3481	74.1349	90.9444	64.4072	52.6824	70.3856	61.867	39.6704	153.282	30.956	11.8128	153.426	33.9084	-12.6143	149.304	33.5336	-41.4114	140.419	-4.40178	2.1234	133.348	-3.8504	-25.0413	115.153	-1.30995	-55.7889	108.126	-8.61002	9.97731	77.7309	6.40204	4.78508	65.1761	22.5891	31.4969	92.9749	-22.835	34.823	70.2461	-2.44267	34.05	65.5554	22.5049	51.644	139.792	-24.9625	64.7481	148.564	-29.5725	96.2418	160.581	1.32399	76.3558	
102	0.85	142.726	36.6096	91.9691	114.172	56.687	75.9949	94.2286	65.7171	53.1447	74.6609	61.4453	40.9812	151.929	26.0205	13.7974	152.447	28.3638	-12.3637	149.486	29.4252	-40.0266	139.287	-6.27687	4.53927	130.05	-7.70148	-27.0218	110.493	-6.18063	-55.9287	106.495	-12.1102	13.148	77.7356	6.04107	6.03657	65.4159	21.8468	33.1222	89.3076	-22.3584	33.7134	69.4354	-3.52681	35.3389	65.5108	20.4663	53.5211	140.425	-25.1059	59.6771	149.35	-33.2819	97.0416	160.764	-0.88966	77.0502	
103	0.858333	145.676	38.8468	93.9077	117.555	55.9063	76.2872	99.5993	63.7808	55.0353	77.1949	64.3455	35.7056	151.113	22.372	10.3946	153.724	28.2472	-15.5937	152.704	29.4473	-41.402	136.377	-9.15601	4.77555	129.404	-6.80341	-27.08	113.594	-5.00436	-53.5179	104.649	-10.7965	11.2608	76.6377	4.25476	7.39676	64.0407	20.141	33.6791	86.7604	-24.0146	34.8963	69.7721	-4.18349	34.4441	64.3541	21.7117	51.3644	139.368	-28.6321	61.0915	150.375	-32.7337	96.0641	163.549	1.83181	77.421	
104	0.866667	145.817	33.6598	94.8481	120.973	59.5807	75.9465	103.051	64.4025	54.4616	83.0623	66.2856	40.012	154.026	24.9352	14.3008	156.168	27.4794	-14.2324	152.474	23.8607	-39.8754	139.269	-6.0247	1.75059	128.767	-9.70549	-24.9276	113.271	-9.76585	-52.1237	103.66	-13.1567	12.5682	75.7526	7.06518	7.11545	61.0698	19.0944	34.5795	89.4467	-25.8	36.3731	68.2359	-5.64799	36.4199	64.1154	24.2694	52.4919	141.376	-29.3489	64.5581	149.178	-34.6219	97.9548	160.327	-2.58851	78.8682	
105	0.875	148.202	34.2452	94.0304	123.364	58.8566	77.385	105.493	68.3063	54.558	85.4967	67.9453	38.0317	154.205	23.3796	12.8546	155.739	25.9368	-11.5492	154.749	23.7942	-36.5024	137.813	-7.63738	3.31724	129.971	-9.65132	-21.736	115.651	-9.86452	-52.0667	103.888	-10.9669	11.5943	76.1411	6.28032	6.87642	59.5671	19.7681	26.9841	90.0545	-26.0237	36.6667	69.2773	-4.30408	36.8243	60.8363	18.934	49.0671	140.985	-29.0192	62.1248	152.204	-33.425	96.4371	161.988	0.386955	76.4969	
106	0.883333	150.434	37.2678	95.8515	126.682	59.4603	78.9502	108.951	67.6718	54.8527	89.9442	69.575	41.81	152.413	20.4682	12.9571	154.497	22.1929	-9.67195	156.276	21.4879	-38.0631	136.8	-9.96665	2.82563	130.379	-11.0598	-24.7869	118.152	-12.0969	-55.3198	105.781	-13.043	12.0965	78.4001	1.0277	5.34228	59.3353	17.6085	22.3131	91.479	-29.9337	38.4958	67.0188	-10.3628	37.2284	55.237	10.8372	44.9328	141.923	-33.9007	61.6785	151.901	-38.2188	97.1519	163.217	-1.59369	75.4008	
107	0.891667	150.461	35.6324	97.0795	126.85	54.6199	78.1205	110.932	66.4758	55.1189	92.3886	73.8675	40.7357	154.471	22.7348	14.4712	157.718	27.6094	-11.542	157.706	24.9615	-39.9899	139.843	-8.06839	1.09243	133.034	-8.23849	-24.0545	121.782	-14.1655	-50.0214	108.314	-14.9416	12.8019	76.1931	-3.93549	3.21106	58.2871	13.5378	16.9679	90.7324	-30.8999	36.6505	71.926	-17.4442	32.1815	55.7768	8.70152	35.7838	142.588	-33.6203	62.4419	154.721	-35.6313	93.6493	164.302	-1.9108	77.7859	
108	0.9	150.145	32.3642	97.6262	128.262	58.1313	78.4864	112.311	71.8388	59.6816	93.8133	74.7111	42.9505	153.398	23.1929	15.7698	156.115	28.0144	-12.8796	157.502	28.7534	-38.442	141.974	-5.54919	6.82551	134.58	-10.7261	-21.9974	126.957	-10.2105	-50.9683	108.894	-16.7514	10.5836	80.2101	-8.53502	-0.326472	54.5092	7.30462	10.1879	91.8837	-31.9078	34.9047	75.318	-21.0019	30.2508	53.2316	-0.653109	29.0035	144.097	-33.7258	63.8466	157.918	-34.0948	94.1186	166.713	-1.99053	77.4367	
109	0.908333	151.663	35.1605	97.6822	130.172	56.4806	82.3753	112.688	71.2195	59.2263	95.0285	76.6826	44.2303	153.518	26.1511	17.7318	154.276	30.2829	-7.93731	157.763	29.8695	-37.6448	141.734	-8.23575	2.25517	138.022	-4.71051	-22.9437	130.828	-11.5941	-50.3493	110.554	-20.8091	11.6574	85.7466	-12.8062	-2.39982	58.7067	2.39934	1.85498	96.7404	-33.8443	33.6506	74.1199	-24.4078	28.7432	55.7286	-6.04548	24.034	146.548	-31.753	63.4006	158.324	-37.3299	94.4232	164.517	-1.6011	79.7924	
110	0.916667	153.518	35.7257	94.0064	131.583	58.426	81.3299	118.057	74.6419	63.5192	99.4419	83.9462	45.0717	153.143	21.2987	16.0674	155.108	28.0827	-12.079	158.509	30.8559	-35.7194	144.898	-4.75533	5.33572	137.569	-7.47175	-26.407	132.544	-10.7211	-53.3111	113.641	-20.9453	13.2086	86.2581	-8.06653	-5.79496	63.4219	2.70008	-2.71461	96.2925	-36.415	34.2837	77.4725	-25.1236	26.9502	53.6286	-12.0938	20.1718	146.486	-33.5091	64.3885	157.107	-36.2264	97.5855	167.336	-2.06339	76.5012	
111	0.925	154.402	31.9683	94.107	135.286	56.6491	82.1684	123.248	74.3298	64.4796	105.677	84.2355	47.7088	156.048	21.0284	14.6072	158.481	26.6115	-11.783	160.836	28.8713	-36.4995	144.132	-8.06386	4.61365	139.711	-5.42766	-22.505	132.486	-9.39193	-55.7176	112.535	-21.7359	12.4601	88.4342	-8.6815	-4.49717	60.7082	5.02041	-3.85987	98.9832	-35.1477	36.0601	76.6199	-25.7972	27.497	56.4023	-12.8396	19.4223	148.234	-29.7652	60.7286	156.634	-39.3212	94.8942	169.448	-3.14885	80.154	
112	0.933333	158.346	32.2353	93.8687	139.304	55.7537	78.2479	127.33	73.341	62.4718	110.006	86.0967	45.7573	158.339	22.0756	15.6556	160.699	22.9734	-12.7649	162.116	22.7309	-34.0587	144.735	-5.48476	0.406213	138.699	-8.34361	-22.3106	132.188	-6.68614	-53.9752	113.828	-18.2994	10.2812	87.2475	-7.56572	-5.42074	59.9108	7.20185	-2.69625	96.1243	-35.1914	36.9384	73.2365	-26.1564	28.3003	55.521	-8.6369	19.7205	147.924	-33.9243	59.8952	157.503	-38.5776	94.07	167.783	-3.67369	77.6177	
113	0.941667	163.138	33.277	96.0459	146.12	60.1977	82.278	133.486	75.9399	58.4233	117.349	87.3855	46.3304	160.053	17.4819	14.7757	163.645	22.8191	-8.75786	166.478	16.6188	-38.0436	142.087	-10.2838	3.93586	134.592	-8.91435	-27.4821	126.997	-6.4356	-50.7015	113.541	-16.928	11.4582	85.8829	-9.53258	-3.75155	61.0268	10.9195	-1.79043	93.0632	-32.5493	36.2366	74.8583	-20.4618	27.1478	56.3866	-8.44281	20.6868	146.58	-32.0588	60.4523	156.899	-36.6108	97.7234	169.425	-4.23659	79.5869	
114	0.95	163.682	31.7517	93.9471	149.149	56.2253	81.4355	138.037	70.9057	61.4584	123.379	85.3972	42.2904	161.75	17.7019	14.2515	164.682	18.6771	-11.8869	167.128	13.5572	-36.8981	141.316	-10.0231	1.32392	133.241	-2.7792	-23.721	118.362	1.90781	-50.3071	114.03	-15.8721	11.1601	85.1285	-4.781	-3.56142	63.9846	9.45251	0.0843964	93.94	-33.8953	37.9606	73.7688	-20.1751	29.0116	56.9956	-5.93003	22.4621	147.423	-35.3016	65.1035	158.759	-36.9486	93.0284	170.583	-4.58344	80.1271	
115	0.958333	166.234	30.2772	98.6178	153.789	57.7986	81.9569	144.689	73.64	61.6668	129.192	84.0171	43.566	161.096	14.1024	15.79	165.624	17.3711	-11.7888	169.435	15.9762	-38.5851	141.054	-5.76804	2.2143	123.996	-0.0363896	-27.0809	103.851	13.6072	-48.7231	113.068	-18.6478	15.6906	88.9406	-2.21582	-1.71008	63.7651	13.4687	2.96852	95.873	-29.801	36.2325	76.8055	-16.551	27.8263	60.9445	-0.629811	19.4131	147.025	-33.9363	65.8004	157.255	-37.6483	96.5592	171.434	-9.26898	77.064	
116	0.966667	166.32	26.9738	94.5859	155.964	56.7632	79.5565	148.566	75.205	58.8496	135.315	85.7864	44.7568	161.595	14.5869	15.0307	166.415	18.1713	-13.5638	165.116	12.2649	-40.0969	138.374	-1.8557	0.71447	116.046	5.537	-23.8298	90.4527	20.056	-36.8334	111.823	-14.189	12.4079	87.1163	-1.81306	-0.980927	65.9191	16.2132	5.09343	97.1653	-28.4122	34.7165	79.3636	-19.9954	27.9078	62.2202	2.81038	18.5286	147.082	-31.8869	61.3441	159.925	-38.4826	97.9446	174.252	-7.35725	79.4267	
117	0.975	166.875	27.0039	94.6119	159.294	57.6857	81.2635	148.692	70.6822	58.6464	136.56	88.4936	41.477	164.291	18.2813	11.8141	164.992	19.9654	-12.5046	163.495	15.3789	-39.4272	135.276	-0.346605	1.8449	116.611	10.6523	-18.35	83.7156	29.2386	-24.998	111.609	-15.2873	13.2363	88.2896	0.879423	0.127595	65.2652	23.2427	6.48178	93.8488	-29.0447	34.9187	79.195	-19.5981	26.5274	61.0134	4.08985	17.0079	147.453	-30.8318	61.5538	155.261	-40.2004	97.1856	171.775	-6.80936	74.5315	
118	0.983333	170.861	28.491	96.2551	159.373	56.3571	77.0373	151.173	73.7721	60.2909	136.505	86.8784	41.4942	162.49	18.4963	14.7748	162.934	20.9833	-11.8851	160.523	20.0024	-39.747	134.198	0.723779	4.88643	111.662	13.6235	-16.553	78.4742	31.88	-15.0432	109.624	-14.26	11.4371	84.1117	3.20391	0.209247	66.7793	24.7618	6.99215	97.792	-29.8437	37.6883	73.7691	-18.0188	26.465	61.9231	-0.0665266	16.3154	147.47	-33.3689	63.4818	155.64	-40.0908	95.7964	172.809	-8.75236	73.4905	
119	0.991667	171.123	28.0225	93.4236	162.842	56.9188	77.4906	153.227	71.5773	58.7701	138.013	86.3599	42.8877	161.224	18.7258	13.7752	157.411	19.6219	-15.4066	152.766	21.2143	-40.6839	131.027	0.861741	1.01748	106.796	16.0741	-15.618	77.815	33.1925	-8.71216	113.512	-13.0985	13.547	84.4892	3.21266	-0.181794	68.9208	23.2022	7.35938	96.3052	-32.0245	39.5088	76.0059	-18.8943	24.846	60.3171	-3.34514	13.0248	146.787	-31.1931	64.4027	158.124	-38.1412	92.2335	172.963	-6.17639	74.1678	
